<svg width="125" height="100" viewBox="0 0 125 100" fill="none" xmlns="http://www.w3.org/2000/svg">
<mask id="path-1-inside-1" fill="white">
<path fill-rule="evenodd" clip-rule="evenodd" d="M111.082 9L100 0L88.9182 9H5C2.23858 9 0 11.2386 0 14V95C0 97.7614 2.23858 100 5 100H120C122.761 100 125 97.7614 125 95V14C125 11.2386 122.761 9 120 9H111.082Z"/>
</mask>
<path fill-rule="evenodd" clip-rule="evenodd" d="M111.082 9L100 0L88.9182 9H5C2.23858 9 0 11.2386 0 14V95C0 97.7614 2.23858 100 5 100H120C122.761 100 125 97.7614 125 95V14C125 11.2386 122.761 9 120 9H111.082Z" fill="#FBFBFB"/>
<path d="M100 0L100.63 -0.776251L100 -1.28824L99.3696 -0.776251L100 0ZM111.082 9L110.451 9.77625L110.727 10H111.082V9ZM88.9182 9V10H89.2731L89.5486 9.77625L88.9182 9ZM99.3696 0.776251L110.451 9.77625L111.712 8.22375L100.63 -0.776251L99.3696 0.776251ZM89.5486 9.77625L100.63 0.776251L99.3696 -0.776251L88.2877 8.22375L89.5486 9.77625ZM5 10H88.9182V8H5V10ZM1 14C1 11.7909 2.79086 10 5 10V8C1.68629 8 -1 10.6863 -1 14H1ZM1 95V14H-1V95H1ZM5 99C2.79086 99 1 97.2091 1 95H-1C-1 98.3137 1.68629 101 5 101V99ZM120 99H5V101H120V99ZM124 95C124 97.2091 122.209 99 120 99V101C123.314 101 126 98.3137 126 95H124ZM124 14V95H126V14H124ZM120 10C122.209 10 124 11.7909 124 14H126C126 10.6863 123.314 8 120 8V10ZM111.082 10H120V8H111.082V10Z" fill="#7E989C" mask="url(#path-1-inside-1)"/>
</svg>
